{
  "accessors": [
    {
      "bufferView": 2,
      "componentType": 5126,
      "count": 48914,
      "max": [
        10.17167854309082,
        8.904718399047852,
        0.9700819849967957
      ],
      "min": [
        -10.17167854309082,
        -7.006560802459717,
        -4.0549540519714355
      ],
      "type": "VEC3"
    },
    {
      "bufferView": 2,
      "byteOffset": 586968,
      "componentType": 5126,
      "count": 48914,
      "max": [
        1.0,
        1.0,
        1.0
      ],
      "min": [
        -1.0,
        -1.0,
        -1.0
      ],
      "type": "VEC3"
    },
    {
      "bufferView": 3,
      "componentType": 5126,
      "count": 48914,
      "max": [
        1.0,
        1.0,
        1.0,
        1.0
      ],
      "min": [
        -1.0,
        -1.0,
        -1.0,
        -1.0
      ],
      "type": "VEC4"
    },
    {
      "bufferView": 1,
      "componentType": 5126,
      "count": 48914,
      "max": [
        0.9904059171676636,
        0.9951739311218262
      ],
      "min": [
        0.006314000114798546,
        0.0017459988594055176
      ],
      "type": "VEC2"
    },
    {
      "bufferView": 1,
      "byteOffset": 391312,
      "componentType": 5126,
      "count": 48914,
      "max": [
        0.9904059171676636,
        0.9951739311218262
      ],
      "min": [
        0.006314000114798546,
        0.0017459988594055176
      ],
      "type": "VEC2"
    },
    {
      "bufferView": 1,
      "byteOffset": 782624,
      "componentType": 5126,
      "count": 48914,
      "max": [
        0.9904059171676636,
        0.9951739311218262
      ],
      "min": [
        0.006314000114798546,
        0.0017459988594055176
      ],
      "type": "VEC2"
    },
    {
      "bufferView": 1,
      "byteOffset": 1173936,
      "componentType": 5126,
      "count": 48914,
      "max": [
        0.9904059171676636,
        0.9951739311218262
      ],
      "min": [
        0.006314000114798546,
        0.0017459988594055176
      ],
      "type": "VEC2"
    },
    {
      "bufferView": 1,
      "byteOffset": 1565248,
      "componentType": 5126,
      "count": 48914,
      "max": [
        0.9904059171676636,
        0.9951739311218262
      ],
      "min": [
        0.006314000114798546,
        0.0017459988594055176
      ],
      "type": "VEC2"
    },
    {
      "bufferView": 0,
      "componentType": 5125,
      "count": 219708,
      "type": "SCALAR"
    },
    {
      "bufferView": 2,
      "byteOffset": 1173936,
      "componentType": 5126,
      "count": 28846,
      "max": [
        13.248732566833496,
        10.550609588623047,
        -0.6083490252494812
      ],
      "min": [
        -13.248734474182129,
        -10.550609588623047,
        -4.666121006011963
      ],
      "type": "VEC3"
    },
    {
      "bufferView": 2,
      "byteOffset": 1520088,
      "componentType": 5126,
      "count": 28846,
      "max": [
        0.9998224377632141,
        1.0,
        0.9999204874038696
      ],
      "min": [
        -0.9998224973678589,
        -1.0,
        -0.9999865889549255
      ],
      "type": "VEC3"
    },
    {
      "bufferView": 3,
      "byteOffset": 782624,
      "componentType": 5126,
      "count": 28846,
      "max": [
        0.999862015247345,
        0.9999998211860657,
        0.9999938607215881,
        1.0
      ],
      "min": [
        -0.9999496936798096,
        -0.9999999403953552,
        -0.9999765753746033,
        -1.0
      ],
      "type": "VEC4"
    },
    {
      "bufferView": 1,
      "byteOffset": 1956560,
      "componentType": 5126,
      "count": 28846,
      "max": [
        0.9980469942092896,
        0.9980469942092896
      ],
      "min": [
        0.0019529999699443579,
        0.03666102886199951
      ],
      "type": "VEC2"
    },
    {
      "bufferView": 1,
      "byteOffset": 2187328,
      "componentType": 5126,
      "count": 28846,
      "max": [
        0.9980469942092896,
        0.9980469942092896
      ],
      "min": [
        0.0019529999699443579,
        0.03666102886199951
      ],
      "type": "VEC2"
    },
    {
      "bufferView": 1,
      "byteOffset": 2418096,
      "componentType": 5126,
      "count": 28846,
      "max": [
        0.9980469942092896,
        0.9980469942092896
      ],
      "min": [
        0.0019529999699443579,
        0.03666102886199951
      ],
      "type": "VEC2"
    },
    {
      "bufferView": 1,
      "byteOffset": 2648864,
      "componentType": 5126,
      "count": 28846,
      "max": [
        0.9980469942092896,
        0.9980469942092896
      ],
      "min": [
        0.0019529999699443579,
        0.03666102886199951
      ],
      "type": "VEC2"
    },
    {
      "bufferView": 0,
      "byteOffset": 878832,
      "componentType": 5125,
      "count": 106392,
      "type": "SCALAR"
    },
    {
      "bufferView": 2,
      "byteOffset": 1866240,
      "componentType": 5126,
      "count": 203,
      "max": [
        0.8024500012397766,
        7.898551940917969,
        -0.3449299931526184
      ],
      "min": [
        -0.8024500012397766,
        7.653665065765381,
        -1.2924460172653198
      ],
      "type": "VEC3"
    },
    {
      "bufferView": 2,
      "byteOffset": 1868676,
      "componentType": 5126,
      "count": 203,
      "max": [
        0.999790370464325,
        1.0,
        1.0
      ],
      "min": [
        -0.999790370464325,
        -1.0,
        -1.0
      ],
      "type": "VEC3"
    },
    {
      "bufferView": 1,
      "byteOffset": 2879632,
      "componentType": 5126,
      "count": 203,
      "max": [
        0.9810299873352051,
        0.7893999814987183
      ],
      "min": [
        0.018969997763633728,
        0.20109200477600098
      ],
      "type": "VEC2"
    },
    {
      "bufferView": 0,
      "byteOffset": 1304400,
      "componentType": 5125,
      "count": 780,
      "type": "SCALAR"
    }
  ],
  "asset": {
    "extras": {
      "author": "aurumjuda747 (https://sketchfab.com/aurumjuda747)",
      "license": "CC-BY-4.0 (http://creativecommons.org/licenses/by/4.0/)",
      "source": "https://sketchfab.com/3d-models/dji-mini-2-se-784000e6d1f944459fb19a7f85487e0f",
      "title": "DJI Mini 2 SE"
    },
    "generator": "Sketchfab-14.95.0",
    "version": "2.0"
  },
  "bufferViews": [
    {
      "buffer": 0,
      "byteLength": 1307520,
      "name": "floatBufferViews",
      "target": 34963
    },
    {
      "buffer": 0,
      "byteLength": 2881256,
      "byteOffset": 1307520,
      "byteStride": 8,
      "name": "floatBufferViews",
      "target": 34962
    },
    {
      "buffer": 0,
      "byteLength": 1871112,
      "byteOffset": 4188776,
      "byteStride": 12,
      "name": "floatBufferViews",
      "target": 34962
    },
    {
      "buffer": 0,
      "byteLength": 1244160,
      "byteOffset": 6059888,
      "byteStride": 16,
      "name": "floatBufferViews",
      "target": 34962
    }
  ],
  "buffers": [
    {
      "byteLength": 7304048,
      "uri": "scene.bin"
    }
  ],
  "extensionsUsed": [
    "KHR_materials_specular"
  ],
  "images": [
    {
      "uri": "textures/lambert4SG.001_baseColor.png"
    },
    {
      "uri": "textures/lambert4SG.001_metallicRoughness.png"
    },
    {
      "uri": "textures/lambert4SG.001_normal.png"
    },
    {
      "uri": "textures/lambert5SG.001_baseColor.png"
    },
    {
      "uri": "textures/lambert5SG.001_metallicRoughness.png"
    },
    {
      "uri": "textures/lambert5SG.001_normal.png"
    }
  ],
  "materials": [
    {
      "doubleSided": true,
      "extensions": {
        "KHR_materials_specular": {
          "specularColorFactor": [
            1.0,
            1.0,
            1.0
          ],
          "specularFactor": 1.0
        }
      },
      "name": "lambert4SG.001",
      "normalTexture": {
        "index": 2,
        "texCoord": 2
      },
      "occlusionTexture": {
        "index": 1,
        "texCoord": 3
      },
      "pbrMetallicRoughness": {
        "baseColorTexture": {
          "index": 0
        },
        "metallicRoughnessTexture": {
          "index": 1,
          "texCoord": 1
        }
      }
    },
    {
      "doubleSided": true,
      "extensions": {
        "KHR_materials_specular": {
          "specularColorFactor": [
            1.0,
            1.0,
            1.0
          ],
          "specularFactor": 1.0
        }
      },
      "name": "lambert5SG.001",
      "normalTexture": {
        "index": 5
      },
      "pbrMetallicRoughness": {
        "baseColorFactor": [
          0.8704268292682927,
          0.8704268292682927,
          0.8704268292682927,
          1.0
        ],
        "baseColorTexture": {
          "index": 3
        },
        "metallicFactor": 0.9375,
        "metallicRoughnessTexture": {
          "index": 4
        }
      }
    },
    {
      "alphaMode": "BLEND",
      "doubleSided": true,
      "extensions": {
        "KHR_materials_specular": {
          "specularColorFactor": [
            1.0,
            1.0,
            1.0
          ],
          "specularFactor": 1.0
        }
      },
      "name": "lambert6SG.001",
      "pbrMetallicRoughness": {
        "baseColorFactor": [
          0.0,
          0.0,
          0.0,
          0.25
        ],
        "metallicFactor": 0.0,
        "roughnessFactor": 0.0
      }
    }
  ],
  "meshes": [
    {
      "name": "Object_0",
      "primitives": [
        {
          "attributes": {
            "NORMAL": 1,
            "POSITION": 0,
            "TANGENT": 2,
            "TEXCOORD_0": 3,
            "TEXCOORD_1": 4,
            "TEXCOORD_2": 5,
            "TEXCOORD_3": 6,
            "TEXCOORD_4": 7
          },
          "indices": 8,
          "material": 0,
          "mode": 4
        }
      ]
    },
    {
      "name": "Object_1",
      "primitives": [
        {
          "attributes": {
            "NORMAL": 10,
            "POSITION": 9,
            "TANGENT": 11,
            "TEXCOORD_0": 12,
            "TEXCOORD_1": 13,
            "TEXCOORD_2": 14,
            "TEXCOORD_3": 15
          },
          "indices": 16,
          "material": 1,
          "mode": 4
        }
      ]
    },
    {
      "name": "Object_2",
      "primitives": [
        {
          "attributes": {
            "NORMAL": 18,
            "POSITION": 17,
            "TEXCOORD_0": 19
          },
          "indices": 20,
          "material": 2,
          "mode": 4
        }
      ]
    }
  ],
  "nodes": [
    {
      "children": [
        1
      ],
      "matrix": [
        1.0,
        0.0,
        0.0,
        0.0,
        0.0,
        2.220446049250313e-16,
        -1.0,
        0.0,
        0.0,
        1.0,
        2.220446049250313e-16,
        0.0,
        0.0,
        0.0,
        0.0,
        1.0
      ],
      "name": "Sketchfab_model"
    },
    {
      "children": [
        2
      ],
      "name": "root"
    },
    {
      "children": [
        3
      ],
      "matrix": [
        1.0,
        0.0,
        0.0,
        0.0,
        0.0,
        2.220446049250313e-16,
        1.0,
        0.0,
        0.0,
        -1.0,
        2.220446049250313e-16,
        0.0,
        0.0,
        0.0,
        0.0,
        1.0
      ],
      "name": "GLTF_SceneRootNode"
    },
    {
      "children": [
        4,
        5,
        6
      ],
      "matrix": [
        0.009999999776482582,
        0.0,
        0.0,
        0.0,
        0.0,
        -1.6858739316326353e-09,
        0.00999999977648244,
        0.0,
        0.0,
        -0.00999999977648244,
        -1.6858739316326353e-09,
        0.0,
        6.683310493826866e-05,
        0.0,
        6.577956810360774e-06,
        1.0
      ],
      "name": "Default_0"
    },
    {
      "mesh": 0,
      "name": "Object_4"
    },
    {
      "mesh": 1,
      "name": "Object_5"
    },
    {
      "mesh": 2,
      "name": "Object_6"
    }
  ],
  "samplers": [
    {
      "magFilter": 9729,
      "minFilter": 9987,
      "wrapS": 10497,
      "wrapT": 10497
    }
  ],
  "scene": 0,
  "scenes": [
    {
      "name": "Sketchfab_Scene",
      "nodes": [
        0
      ]
    }
  ],
  "textures": [
    {
      "sampler": 0,
      "source": 0
    },
    {
      "sampler": 0,
      "source": 1
    },
    {
      "sampler": 0,
      "source": 2
    },
    {
      "sampler": 0,
      "source": 3
    },
    {
      "sampler": 0,
      "source": 4
    },
    {
      "sampler": 0,
      "source": 5
    }
  ]
}
